<?xml version="1.0" encoding="UTF-8" standalone="no"?>
<!DOCTYPE svg PUBLIC "-//W3C//DTD SVG 1.1//EN"
 "http://www.w3.org/Graphics/SVG/1.1/DTD/svg11.dtd">
<!-- Generated by graphviz version 2.26.3 (20100126.1600)
 -->
<!-- Title: G Pages: 1 -->
<svg width="346pt" height="190pt"
 viewBox="0.00 0.00 346.00 190.00" xmlns="http://www.w3.org/2000/svg" xmlns:xlink="http://www.w3.org/1999/xlink">
<g id="graph1" class="graph" transform="scale(1 1) rotate(0) translate(4 186)">
<title>G</title>
<polygon fill="white" stroke="white" points="-4,5 -4,-186 343,-186 343,5 -4,5"/>
<g id="graph2" class="cluster"><title>cluster_Global</title>
<polyline fill="none" stroke="gray" points="192,-8 318,-8 "/>
<path fill="none" stroke="gray" d="M318,-8C324,-8 330,-14 330,-20"/>
<polyline fill="none" stroke="gray" points="330,-20 330,-162 "/>
<path fill="none" stroke="gray" d="M330,-162C330,-168 324,-174 318,-174"/>
<polyline fill="none" stroke="gray" points="318,-174 192,-174 "/>
<path fill="none" stroke="gray" d="M192,-174C186,-174 180,-168 180,-162"/>
<polyline fill="none" stroke="gray" points="180,-162 180,-20 "/>
<path fill="none" stroke="gray" d="M180,-20C180,-14 186,-8 192,-8"/>
<text text-anchor="middle" x="255" y="-160.1" font-family="Times Roman,serif" font-size="11.00" fill="gray">Global</text>
</g>
<g id="graph3" class="cluster"><title>cluster_\alizephp</title>
<polyline fill="none" stroke="gray" points="200,-16 310,-16 "/>
<path fill="none" stroke="gray" d="M310,-16C316,-16 322,-22 322,-28"/>
<polyline fill="none" stroke="gray" points="322,-28 322,-132 "/>
<path fill="none" stroke="gray" d="M322,-132C322,-138 316,-144 310,-144"/>
<polyline fill="none" stroke="gray" points="310,-144 200,-144 "/>
<path fill="none" stroke="gray" d="M200,-144C194,-144 188,-138 188,-132"/>
<polyline fill="none" stroke="gray" points="188,-132 188,-28 "/>
<path fill="none" stroke="gray" d="M188,-28C188,-22 194,-16 200,-16"/>
<text text-anchor="middle" x="255" y="-130.1" font-family="Times Roman,serif" font-size="11.00" fill="gray">alizephp</text>
</g>
<!-- \\alizephp\\AlizePHPException -->
<g id="node3" class="node"><title>\\alizephp\\AlizePHPException</title>
<polygon fill="none" stroke="black" points="313,-114 197,-114 197,-78 313,-78 313,-114"/>
<text text-anchor="middle" x="255" y="-93.1" font-family="Times Roman,serif" font-size="11.00">AlizePHPException</text>
</g>
<!-- \\Exception -->
<g id="node6" class="node"><title>\\Exception</title>
<ellipse fill="none" stroke="black" cx="62" cy="-96" rx="61.8445" ry="18"/>
<text text-anchor="middle" x="62" y="-91.9" font-family="Times Roman,serif" font-size="14.00" fill="gray">\Exception</text>
</g>
<!-- \\alizephp\\AlizePHPException&#45;&gt;\\Exception -->
<g id="edge4" class="edge"><title>\\alizephp\\AlizePHPException&#45;&gt;\\Exception</title>
<path fill="none" stroke="black" d="M196.308,-96C176.764,-96 154.762,-96 134.311,-96"/>
<polygon fill="none" stroke="black" points="134.097,-92.5001 124.097,-96 134.097,-99.5001 134.097,-92.5001"/>
</g>
<!-- \\alizephp\\AlizePHP -->
<g id="node4" class="node"><title>\\alizephp\\AlizePHP</title>
<polygon fill="none" stroke="black" points="286,-60 224,-60 224,-24 286,-24 286,-60"/>
<text text-anchor="middle" x="255" y="-39.1" font-family="Times Roman,serif" font-size="11.00">AlizePHP</text>
</g>
</g>
</svg>
